<svg xmlns="http://www.w3.org/2000/svg" xmlns:xlink="http://www.w3.org/1999/xlink" version="1.1" x="0px" y="0px" style="enable-background:new 0 0 100 100;" xml:space="preserve" viewBox="6.4 12 87.2 76"><g><polygon points="6.4,25.9 11.6,25.9 16.7,25.9 14.2,21.5 12.7,19 14.2,16.5 16.7,12 11.6,12 6.4,12 9,16.5 10.4,19 9,21.5  "></polygon><polygon points="15.3,19 16.6,21.3 18,23.6 19.3,21.3 20.6,19 19.3,16.7 18,14.4 16.6,16.7  "></polygon><polygon points="23.2,19 21.8,21.5 19.2,25.9 24.4,25.9 29.5,25.9 27,21.5 25.5,19 27,16.5 29.5,12 24.4,12 19.2,12 21.8,16.5  "></polygon><polygon points="28.1,19 29.5,21.3 30.8,23.6 32.1,21.3 33.5,19 32.1,16.7 30.8,14.4 29.5,16.7  "></polygon><polygon points="36,19 34.6,21.5 32,25.9 37.2,25.9 42.4,25.9 39.8,21.5 38.3,19 39.8,16.5 42.4,12 37.2,12 32,12 34.6,16.5  "></polygon><polygon points="40.9,19 42.3,21.3 43.6,23.6 44.9,21.3 46.3,19 44.9,16.7 43.6,14.4 42.3,16.7  "></polygon><polygon points="48.9,19 47.4,21.5 44.8,25.9 50,25.9 55.2,25.9 52.6,21.5 51.1,19 52.6,16.5 55.2,12 50,12 44.8,12 47.4,16.5  "></polygon><polygon points="53.7,19 55.1,21.3 56.4,23.6 57.7,21.3 59.1,19 57.7,16.7 56.4,14.4 55.1,16.7  "></polygon><polygon points="61.7,19 60.2,21.5 57.6,25.9 62.8,25.9 68,25.9 65.4,21.5 64,19 65.4,16.5 68,12 62.8,12 57.6,12 60.2,16.5  "></polygon><polygon points="66.5,19 67.9,21.3 69.2,23.6 70.5,21.3 71.9,19 70.5,16.7 69.2,14.4 67.9,16.7  "></polygon><polygon points="74.5,19 73,21.5 70.5,25.9 75.6,25.9 80.8,25.9 78.2,21.5 76.8,19 78.2,16.5 80.8,12 75.6,12 70.5,12 73,16.5  "></polygon><polygon points="84.7,19 83.4,16.7 82,14.4 80.7,16.7 79.4,19 80.7,21.3 82,23.6 83.4,21.3  "></polygon><polygon points="89.6,19 91,16.5 93.6,12 88.4,12 83.3,12 85.8,16.5 87.3,19 85.8,21.5 83.3,25.9 88.4,25.9 93.6,25.9 91,21.5  "></polygon><polygon points="6.4,41.5 11.6,41.5 16.7,41.5 14.2,37 12.7,34.5 14.2,32 16.7,27.5 11.6,27.5 6.4,27.5 9,32 10.4,34.5 9,37  "></polygon><polygon points="16.6,32.2 15.3,34.5 16.6,36.8 18,39.1 19.3,36.8 20.6,34.5 19.3,32.2 18,29.9  "></polygon><polygon points="19.2,27.5 21.8,32 23.2,34.5 21.8,37 19.2,41.5 24.4,41.5 29.5,41.5 27,37 25.5,34.5 27,32 29.5,27.5 24.4,27.5     "></polygon><polygon points="29.5,32.2 28.1,34.5 29.5,36.8 30.8,39.1 32.1,36.8 33.5,34.5 32.1,32.2 30.8,29.9  "></polygon><polygon points="32,27.5 34.6,32 36,34.5 34.6,37 32,41.5 37.2,41.5 42.4,41.5 39.8,37 38.3,34.5 39.8,32 42.4,27.5 37.2,27.5  "></polygon><polygon points="42.3,32.2 40.9,34.5 42.3,36.8 43.6,39.1 44.9,36.8 46.3,34.5 44.9,32.2 43.6,29.9  "></polygon><polygon points="44.8,27.5 47.4,32 48.9,34.5 47.4,37 44.8,41.5 50,41.5 55.2,41.5 52.6,37 51.1,34.5 52.6,32 55.2,27.5 50,27.5     "></polygon><polygon points="55.1,32.2 53.7,34.5 55.1,36.8 56.4,39.1 57.7,36.8 59.1,34.5 57.7,32.2 56.4,29.9  "></polygon><polygon points="57.6,27.5 60.2,32 61.7,34.5 60.2,37 57.6,41.5 62.8,41.5 68,41.5 65.4,37 64,34.5 65.4,32 68,27.5 62.8,27.5  "></polygon><polygon points="67.9,32.2 66.5,34.5 67.9,36.8 69.2,39.1 70.5,36.8 71.9,34.5 70.5,32.2 69.2,29.9  "></polygon><polygon points="80.8,27.5 75.6,27.5 70.5,27.5 73,32 74.5,34.5 73,37 70.5,41.5 75.6,41.5 80.8,41.5 78.2,37 76.8,34.5 78.2,32     "></polygon><polygon points="84.7,34.5 83.4,32.2 82,29.9 80.7,32.2 79.4,34.5 80.7,36.8 82,39.1 83.4,36.8  "></polygon><polygon points="93.6,27.5 88.4,27.5 83.3,27.5 85.8,32 87.3,34.5 85.8,37 83.3,41.5 88.4,41.5 93.6,41.5 91,37 89.6,34.5 91,32     "></polygon><polygon points="6.4,57 11.6,57 16.7,57 14.2,52.5 12.7,50 14.2,47.5 16.7,43 11.6,43 6.4,43 9,47.5 10.4,50 9,52.5  "></polygon><polygon points="15.3,50 16.6,52.3 18,54.6 19.3,52.3 20.6,50 19.3,47.7 18,45.4 16.6,47.7  "></polygon><polygon points="19.2,57 24.4,57 29.5,57 27,52.5 25.5,50 27,47.5 29.5,43 24.4,43 19.2,43 21.8,47.5 23.2,50 21.8,52.5  "></polygon><polygon points="32.1,52.3 33.5,50 32.1,47.7 30.8,45.4 29.5,47.7 28.1,50 29.5,52.3 30.8,54.6  "></polygon><polygon points="42.4,57 39.8,52.5 38.3,50 39.8,47.5 42.4,43 37.2,43 32,43 34.6,47.5 36,50 34.6,52.5 32,57 37.2,57  "></polygon><polygon points="44.9,52.3 46.3,50 44.9,47.7 43.6,45.4 42.3,47.7 40.9,50 42.3,52.3 43.6,54.6  "></polygon><polygon points="55.2,57 52.6,52.5 51.1,50 52.6,47.5 55.2,43 50,43 44.8,43 47.4,47.5 48.9,50 47.4,52.5 44.8,57 50,57  "></polygon><polygon points="57.7,52.3 59.1,50 57.7,47.7 56.4,45.4 55.1,47.7 53.7,50 55.1,52.3 56.4,54.6  "></polygon><polygon points="68,57 65.4,52.5 64,50 65.4,47.5 68,43 62.8,43 57.6,43 60.2,47.5 61.7,50 60.2,52.5 57.6,57 62.8,57  "></polygon><polygon points="70.5,52.3 71.9,50 70.5,47.7 69.2,45.4 67.9,47.7 66.5,50 67.9,52.3 69.2,54.6  "></polygon><polygon points="80.8,43 75.6,43 70.5,43 73,47.5 74.5,50 73,52.5 70.5,57 75.6,57 80.8,57 78.2,52.5 76.8,50 78.2,47.5  "></polygon><polygon points="84.7,50 83.4,47.7 82,45.4 80.7,47.7 79.4,50 80.7,52.3 82,54.6 83.4,52.3  "></polygon><polygon points="93.6,43 88.4,43 83.3,43 85.8,47.5 87.3,50 85.8,52.5 83.3,57 88.4,57 93.6,57 91,52.5 89.6,50 91,47.5  "></polygon><polygon points="6.4,72.5 11.6,72.5 16.7,72.5 14.2,68 12.7,65.5 14.2,63 16.7,58.5 11.6,58.5 6.4,58.5 9,63 10.4,65.5 9,68  "></polygon><polygon points="15.3,65.5 16.6,67.8 18,70.1 19.3,67.8 20.6,65.5 19.3,63.2 18,60.9 16.6,63.2  "></polygon><polygon points="29.5,72.5 27,68 25.5,65.5 27,63 29.5,58.5 24.4,58.5 19.2,58.5 21.8,63 23.2,65.5 21.8,68 19.2,72.5 24.4,72.5     "></polygon><polygon points="32.1,67.8 33.5,65.5 32.1,63.2 30.8,60.9 29.5,63.2 28.1,65.5 29.5,67.8 30.8,70.1  "></polygon><polygon points="42.4,72.5 39.8,68 38.3,65.5 39.8,63 42.4,58.5 37.2,58.5 32,58.5 34.6,63 36,65.5 34.6,68 32,72.5 37.2,72.5  "></polygon><polygon points="44.9,67.8 46.3,65.5 44.9,63.2 43.6,60.9 42.3,63.2 40.9,65.5 42.3,67.8 43.6,70.1  "></polygon><polygon points="55.2,72.5 52.6,68 51.1,65.5 52.6,63 55.2,58.5 50,58.5 44.8,58.5 47.4,63 48.9,65.5 47.4,68 44.8,72.5 50,72.5     "></polygon><polygon points="57.7,67.8 59.1,65.5 57.7,63.2 56.4,60.9 55.1,63.2 53.7,65.5 55.1,67.8 56.4,70.1  "></polygon><polygon points="68,72.5 65.4,68 64,65.5 65.4,63 68,58.5 62.8,58.5 57.6,58.5 60.2,63 61.7,65.5 60.2,68 57.6,72.5 62.8,72.5  "></polygon><polygon points="70.5,67.8 71.9,65.5 70.5,63.2 69.2,60.9 67.9,63.2 66.5,65.5 67.9,67.8 69.2,70.1  "></polygon><polygon points="80.8,72.5 78.2,68 76.8,65.5 78.2,63 80.8,58.5 75.6,58.5 70.5,58.5 73,63 74.5,65.5 73,68 70.5,72.5 75.6,72.5     "></polygon><polygon points="83.4,67.8 84.7,65.5 83.4,63.2 82,60.9 80.7,63.2 79.4,65.5 80.7,67.8 82,70.1  "></polygon><polygon points="93.6,58.5 88.4,58.5 83.3,58.5 85.8,63 87.3,65.5 85.8,68 83.3,72.5 88.4,72.5 93.6,72.5 91,68 89.6,65.5 91,63     "></polygon><polygon points="12.7,81 14.2,78.5 16.7,74.1 11.6,74.1 6.4,74.1 9,78.5 10.4,81 9,83.5 6.4,88 11.6,88 16.7,88 14.2,83.5  "></polygon><polygon points="20.6,81 19.3,78.7 18,76.4 16.6,78.7 15.3,81 16.6,83.3 18,85.6 19.3,83.3  "></polygon><polygon points="25.5,81 27,78.5 29.5,74.1 24.4,74.1 19.2,74.1 21.8,78.5 23.2,81 21.8,83.5 19.2,88 24.4,88 29.5,88 27,83.5  "></polygon><polygon points="33.5,81 32.1,78.7 30.8,76.4 29.5,78.7 28.1,81 29.5,83.3 30.8,85.6 32.1,83.3  "></polygon><polygon points="38.3,81 39.8,78.5 42.4,74.1 37.2,74.1 32,74.1 34.6,78.5 36,81 34.6,83.5 32,88 37.2,88 42.4,88 39.8,83.5  "></polygon><polygon points="46.3,81 44.9,78.7 43.6,76.4 42.3,78.7 40.9,81 42.3,83.3 43.6,85.6 44.9,83.3  "></polygon><polygon points="51.1,81 52.6,78.5 55.2,74.1 50,74.1 44.8,74.1 47.4,78.5 48.9,81 47.4,83.5 44.8,88 50,88 55.2,88 52.6,83.5  "></polygon><polygon points="59.1,81 57.7,78.7 56.4,76.4 55.1,78.7 53.7,81 55.1,83.3 56.4,85.6 57.7,83.3  "></polygon><polygon points="64,81 65.4,78.5 68,74.1 62.8,74.1 57.6,74.1 60.2,78.5 61.7,81 60.2,83.5 57.6,88 62.8,88 68,88 65.4,83.5  "></polygon><polygon points="71.9,81 70.5,78.7 69.2,76.4 67.9,78.7 66.5,81 67.9,83.3 69.2,85.6 70.5,83.3  "></polygon><polygon points="76.8,81 78.2,78.5 80.8,74.1 75.6,74.1 70.5,74.1 73,78.5 74.5,81 73,83.5 70.5,88 75.6,88 80.8,88 78.2,83.5  "></polygon><polygon points="84.7,81 83.4,78.7 82,76.4 80.7,78.7 79.4,81 80.7,83.3 82,85.6 83.4,83.3  "></polygon><polygon points="93.6,74.1 88.4,74.1 83.3,74.1 85.8,78.5 87.3,81 85.8,83.5 83.3,88 88.4,88 93.6,88 91,83.5 89.6,81 91,78.5  "></polygon></g></svg>
