<svg xmlns="http://www.w3.org/2000/svg" xmlns:xlink="http://www.w3.org/1999/xlink" version="1.1" x="0px" y="0px" style="enable-background:new 0 0 100 100;" xml:space="preserve" viewBox="14.2 17.1 71.6 65.8"><g><polygon points="22.1,22 23.5,19.6 24.9,17.1 22.1,17.1 19.3,17.1 20.7,19.6  "></polygon><polygon points="19.8,23.3 18.4,20.9 17,18.4 15.6,20.9 14.2,23.3 17,23.3  "></polygon><polygon points="17,30.8 18.4,28.3 19.8,25.9 17,25.9 14.2,25.9 15.6,28.3  "></polygon><polygon points="24.8,32.1 23.5,29.7 22.1,27.3 20.7,29.7 19.3,32.1 22.1,32.1  "></polygon><polygon points="27.2,30.8 28.6,28.4 29.9,26 27.2,26 24.4,26 25.8,28.4  "></polygon><polygon points="27.2,18.5 25.8,20.9 24.4,23.3 27.2,23.3 30,23.3 28.6,20.9  "></polygon><polygon points="40.7,22 42.1,19.6 43.5,17.1 40.7,17.1 37.9,17.1 39.3,19.6  "></polygon><polygon points="38.4,23.3 37,20.9 35.6,18.4 34.2,20.9 32.8,23.3 35.6,23.3  "></polygon><polygon points="35.6,30.8 37,28.3 38.4,25.9 35.6,25.9 32.8,25.9 34.2,28.3  "></polygon><polygon points="43.5,32.1 42.1,29.7 40.7,27.3 39.3,29.7 37.9,32.1 40.7,32.1  "></polygon><polygon points="45.8,30.8 47.2,28.4 48.6,26 45.8,26 43,26 44.4,28.4  "></polygon><polygon points="45.8,18.5 44.4,20.9 43,23.3 45.8,23.3 48.6,23.3 47.2,20.9  "></polygon><polygon points="59.3,22 60.7,19.6 62.1,17.1 59.3,17.1 56.5,17.1 57.9,19.6  "></polygon><polygon points="57,23.3 55.6,20.9 54.2,18.4 52.8,20.9 51.4,23.3 54.2,23.3  "></polygon><polygon points="54.2,30.8 55.6,28.3 57,25.9 54.2,25.9 51.4,25.9 52.8,28.3  "></polygon><polygon points="62.1,32.1 60.7,29.7 59.3,27.3 57.9,29.7 56.5,32.1 59.3,32.1  "></polygon><polygon points="64.4,30.8 65.8,28.4 67.2,26 64.4,26 61.6,26 63,28.4  "></polygon><polygon points="64.4,18.5 63,20.9 61.6,23.3 64.4,23.3 67.2,23.3 65.8,20.9  "></polygon><polygon points="77.9,22 79.3,19.6 80.7,17.1 77.9,17.1 75.2,17.1 76.5,19.6  "></polygon><polygon points="75.6,23.3 74.2,20.9 72.8,18.4 71.4,20.9 70.1,23.3 72.8,23.3  "></polygon><polygon points="72.8,30.8 74.2,28.3 75.6,25.9 72.8,25.9 70,25.9 71.4,28.3  "></polygon><polygon points="80.7,32.1 79.3,29.7 77.9,27.3 76.5,29.7 75.1,32.1 77.9,32.1  "></polygon><polygon points="83,30.8 84.4,28.4 85.8,26 83,26 80.2,26 81.6,28.4  "></polygon><polygon points="83,23.3 85.8,23.3 84.4,20.9 83,18.5 81.6,20.9 80.2,23.3  "></polygon><polygon points="22.1,34.1 19.3,34.1 20.7,36.5 22.1,38.9 23.5,36.5 24.9,34.1  "></polygon><polygon points="17,35.4 15.6,37.8 14.2,40.2 17,40.2 19.8,40.2 18.4,37.8  "></polygon><polygon points="17,47.7 18.4,45.3 19.8,42.8 17,42.8 14.2,42.8 15.6,45.3  "></polygon><polygon points="24.8,49 23.5,46.6 22.1,44.2 20.7,46.6 19.3,49 22.1,49  "></polygon><polygon points="27.2,47.7 28.6,45.3 29.9,42.9 27.2,42.9 24.4,42.9 25.8,45.3  "></polygon><polygon points="27.2,35.4 25.8,37.8 24.4,40.2 27.2,40.2 30,40.2 28.6,37.8  "></polygon><polygon points="40.7,34.1 37.9,34.1 39.3,36.5 40.7,38.9 42.1,36.5 43.5,34.1  "></polygon><polygon points="35.6,35.4 34.2,37.8 32.8,40.2 35.6,40.2 38.4,40.2 37,37.8  "></polygon><polygon points="35.6,47.7 37,45.3 38.4,42.8 35.6,42.8 32.8,42.8 34.2,45.3  "></polygon><polygon points="43.5,49 42.1,46.6 40.7,44.2 39.3,46.6 37.9,49 40.7,49  "></polygon><polygon points="45.8,47.7 47.2,45.3 48.6,42.9 45.8,42.9 43,42.9 44.4,45.3  "></polygon><polygon points="45.8,35.4 44.4,37.8 43,40.2 45.8,40.2 48.6,40.2 47.2,37.8  "></polygon><polygon points="59.3,34.1 56.5,34.1 57.9,36.5 59.3,38.9 60.7,36.5 62.1,34.1  "></polygon><polygon points="54.2,35.4 52.8,37.8 51.4,40.2 54.2,40.2 57,40.2 55.6,37.8  "></polygon><polygon points="54.2,47.7 55.6,45.3 57,42.8 54.2,42.8 51.4,42.8 52.8,45.3  "></polygon><polygon points="62.1,49 60.7,46.6 59.3,44.2 57.9,46.6 56.5,49 59.3,49  "></polygon><polygon points="64.4,47.7 65.8,45.3 67.2,42.9 64.4,42.9 61.6,42.9 63,45.3  "></polygon><polygon points="64.4,35.4 63,37.8 61.6,40.2 64.4,40.2 67.2,40.2 65.8,37.8  "></polygon><polygon points="77.9,34.1 75.2,34.1 76.5,36.5 77.9,38.9 79.3,36.5 80.7,34.1  "></polygon><polygon points="72.8,35.4 71.4,37.8 70.1,40.2 72.8,40.2 75.6,40.2 74.2,37.8  "></polygon><polygon points="72.8,47.7 74.2,45.3 75.6,42.8 72.8,42.8 70,42.8 71.4,45.3  "></polygon><polygon points="80.7,49 79.3,46.6 77.9,44.2 76.5,46.6 75.1,49 77.9,49  "></polygon><polygon points="83,47.7 84.4,45.3 85.8,42.9 83,42.9 80.2,42.9 81.6,45.3  "></polygon><polygon points="83,35.4 81.6,37.8 80.2,40.2 83,40.2 85.8,40.2 84.4,37.8  "></polygon><polygon points="22.1,51 19.3,51 20.7,53.4 22.1,55.8 23.5,53.4 24.9,51  "></polygon><polygon points="17,52.3 15.6,54.7 14.2,57.1 17,57.1 19.8,57.1 18.4,54.7  "></polygon><polygon points="17,64.6 18.4,62.2 19.8,59.8 17,59.8 14.2,59.8 15.6,62.2  "></polygon><polygon points="24.8,65.9 23.5,63.5 22.1,61.1 20.7,63.5 19.3,65.9 22.1,65.9  "></polygon><polygon points="27.2,64.6 28.6,62.2 29.9,59.8 27.2,59.8 24.4,59.8 25.8,62.2  "></polygon><polygon points="27.2,52.3 25.8,54.7 24.4,57.2 27.2,57.2 30,57.2 28.6,54.7  "></polygon><polygon points="40.7,51 37.9,51 39.3,53.4 40.7,55.8 42.1,53.4 43.5,51  "></polygon><polygon points="35.6,52.3 34.2,54.7 32.8,57.1 35.6,57.1 38.4,57.1 37,54.7  "></polygon><polygon points="35.6,64.6 37,62.2 38.4,59.8 35.6,59.8 32.8,59.8 34.2,62.2  "></polygon><polygon points="43.5,65.9 42.1,63.5 40.7,61.1 39.3,63.5 37.9,65.9 40.7,65.9  "></polygon><polygon points="45.8,64.6 47.2,62.2 48.6,59.8 45.8,59.8 43,59.8 44.4,62.2  "></polygon><polygon points="45.8,52.3 44.4,54.7 43,57.2 45.8,57.2 48.6,57.2 47.2,54.7  "></polygon><polygon points="59.3,51 56.5,51 57.9,53.4 59.3,55.8 60.7,53.4 62.1,51  "></polygon><polygon points="54.2,52.3 52.8,54.7 51.4,57.1 54.2,57.1 57,57.1 55.6,54.7  "></polygon><polygon points="54.2,64.6 55.6,62.2 57,59.8 54.2,59.8 51.4,59.8 52.8,62.2  "></polygon><polygon points="62.1,65.9 60.7,63.5 59.3,61.1 57.9,63.5 56.5,65.9 59.3,65.9  "></polygon><polygon points="64.4,64.6 65.8,62.2 67.2,59.8 64.4,59.8 61.6,59.8 63,62.2  "></polygon><polygon points="64.4,52.3 63,54.7 61.6,57.2 64.4,57.2 67.2,57.2 65.8,54.7  "></polygon><polygon points="77.9,51 75.2,51 76.5,53.4 77.9,55.8 79.3,53.4 80.7,51  "></polygon><polygon points="72.8,52.3 71.4,54.7 70.1,57.1 72.8,57.1 75.6,57.1 74.2,54.7  "></polygon><polygon points="72.8,64.6 74.2,62.2 75.6,59.8 72.8,59.8 70,59.8 71.4,62.2  "></polygon><polygon points="80.7,65.9 79.3,63.5 77.9,61.1 76.5,63.5 75.1,65.9 77.9,65.9  "></polygon><polygon points="83,64.6 84.4,62.2 85.8,59.8 83,59.8 80.2,59.8 81.6,62.2  "></polygon><polygon points="83,52.3 81.6,54.7 80.2,57.2 83,57.2 85.8,57.2 84.4,54.7  "></polygon><polygon points="22.1,72.7 23.5,70.3 24.9,67.9 22.1,67.9 19.3,67.9 20.7,70.3  "></polygon><polygon points="17,69.2 15.6,71.6 14.2,74 17,74 19.8,74 18.4,71.6  "></polygon><polygon points="17,76.7 14.2,76.7 15.6,79.1 17,81.5 18.4,79.1 19.8,76.7  "></polygon><polygon points="22.1,78 20.7,80.4 19.3,82.9 22.1,82.9 24.8,82.9 23.5,80.4  "></polygon><polygon points="24.4,76.7 25.8,79.1 27.2,81.6 28.6,79.1 29.9,76.7 27.2,76.7  "></polygon><polygon points="27.2,69.2 25.8,71.7 24.4,74.1 27.2,74.1 30,74.1 28.6,71.7  "></polygon><polygon points="40.7,72.7 42.1,70.3 43.5,67.9 40.7,67.9 37.9,67.9 39.3,70.3  "></polygon><polygon points="35.6,69.2 34.2,71.6 32.8,74 35.6,74 38.4,74 37,71.6  "></polygon><polygon points="35.6,76.7 32.8,76.7 34.2,79.1 35.6,81.5 37,79.1 38.4,76.7  "></polygon><polygon points="40.7,78 39.3,80.4 37.9,82.9 40.7,82.9 43.5,82.9 42.1,80.4  "></polygon><polygon points="43,76.7 44.4,79.1 45.8,81.6 47.2,79.1 48.6,76.7 45.8,76.7  "></polygon><polygon points="45.8,69.2 44.4,71.7 43,74.1 45.8,74.1 48.6,74.1 47.2,71.7  "></polygon><polygon points="59.3,72.7 60.7,70.3 62.1,67.9 59.3,67.9 56.5,67.9 57.9,70.3  "></polygon><polygon points="54.2,69.2 52.8,71.6 51.4,74 54.2,74 57,74 55.6,71.6  "></polygon><polygon points="54.2,76.7 51.4,76.7 52.8,79.1 54.2,81.5 55.6,79.1 57,76.7  "></polygon><polygon points="59.3,78 57.9,80.4 56.5,82.9 59.3,82.9 62.1,82.9 60.7,80.4  "></polygon><polygon points="61.6,76.7 63,79.1 64.4,81.6 65.8,79.1 67.2,76.7 64.4,76.7  "></polygon><polygon points="64.4,69.2 63,71.7 61.6,74.1 64.4,74.1 67.2,74.1 65.8,71.7  "></polygon><polygon points="77.9,72.7 79.3,70.3 80.7,67.9 77.9,67.9 75.2,67.9 76.5,70.3  "></polygon><polygon points="72.8,69.2 71.4,71.6 70.1,74 72.8,74 75.6,74 74.2,71.6  "></polygon><polygon points="72.8,76.7 70,76.7 71.4,79.1 72.8,81.5 74.2,79.1 75.6,76.7  "></polygon><polygon points="77.9,78 76.5,80.4 75.1,82.9 77.9,82.9 80.7,82.9 79.3,80.4  "></polygon><polygon points="80.2,76.7 81.6,79.1 83,81.6 84.4,79.1 85.8,76.7 83,76.7  "></polygon><polygon points="83,69.2 81.6,71.7 80.2,74.1 83,74.1 85.8,74.1 84.4,71.7  "></polygon></g></svg>
