<svg xmlns="http://www.w3.org/2000/svg" version="1.1" viewBox="12.5 12.5 75 74.99"> <path d="m23.875 15.125v6.6484h20.426v-6.6484h-7.6992v2.9492h3.8516v0.77344h-4.625v-4.5h17.75v4.5h-4.625v-0.77344h3.8516v-2.9492h-7.6992v6.6484h20.426v-6.6484h-7.6992v2.9492h3.8516v0.77344h-4.6484v-4.5h17.75v4.5h-4.625v-0.77344h3.8516v-2.9492h-7.6992v6.6484h20.426v-6.6484h-7.6992v2.9492h3.8516v0.77344h-4.625v-4.5h8.4766v-1.0742h-9.8242v6.6484h7.6992v-2.9258h-3.8516v-0.80078h4.625v4.5h-17.75v-4.5h4.6484v0.80078h-3.8516v2.9258h7.6992v-6.6484h-20.426v6.6484h7.6992v-2.9258h-3.8516v-0.80078h4.625v4.5h-17.75v-4.5h4.625v0.80078h-3.8516v2.9258h7.6992v-6.6484h-20.426v6.6484h7.6992v-2.9258h-3.8516v-0.80078h4.6484v4.5h-17.75v-4.5h4.625v0.80078h-3.8516v2.9258h7.6992v-6.6484h-20.426v6.6484h7.6992v-2.9258h-3.8516v-0.80078h4.625v4.5h-8.4766v1.0742h9.8242v-6.6484h-7.6992v2.9492h3.8516v0.77344h-4.625v-4.5h17.75v4.5h-4.6484v-0.77344h3.8516v-2.9492h-7.6992zm59 66.801h-3.8516v2.9492h7.6992v-6.6484h-20.426v6.6484h7.6992v-2.9492h-3.8516v-0.77344h4.625v4.5h-17.75v-4.5h4.6484v0.77344h-3.8516v2.9492h7.6992v-6.6484h-20.426v6.6484h7.6992v-2.9492h-3.8516v-0.77344h4.625v4.5h-17.75v-4.5h4.625v0.77344h-3.8516v2.9492h7.6992v-6.6484h-20.426v6.6484h7.6992v-2.9492h-3.8516v-0.77344h4.6484v4.5h-17.75v-4.5h4.625v0.77344h-3.8516v2.9492h7.6992v-6.6484h-9.8242v1.0742h8.4766v4.5h-4.625v-0.80078h3.8516v-2.9258h-7.6992v6.6484h20.426v-6.6484h-7.6992v2.9258h3.8516v0.80078h-4.625v-4.5h17.75v4.5h-4.6484v-0.80078h3.8516v-2.9258h-7.6992v6.6484h20.426v-6.6484h-7.6992v2.9258h3.8516v0.80078h-4.625v-4.5h17.75v4.5h-4.625v-0.80078h3.8516v-2.9258h-7.6992v6.6484h20.426v-6.6484h-7.6992v2.9258h3.8516v0.80078h-4.6484v-4.5h17.75v4.5h-4.625v-0.80078h3.8516v-2.9258h-7.6992v6.6484h9.8242v-1.0742h-8.4766v-4.5h4.625zm0-18.551h-3.8516v2.9258h7.6992v-6.625h-20.426v6.625h7.6992v-2.9258h-3.8516v-0.77344h4.625v4.5h-17.75v-4.5h4.6484v0.77344h-3.8516v2.9258h7.6992v-6.625h-20.426v6.625h7.6992v-2.9258h-3.8516v-0.77344h4.625v4.5h-17.75v-4.5h4.625v0.77344h-3.8516v2.9258h7.6992v-6.625h-20.426v6.625h7.6992v-2.9258h-3.8516v-0.77344h4.6484v4.5h-17.75v-4.5h4.625v0.77344h-3.8516v2.9258h7.6992v-6.625h-9.8242v1.0742h8.4766v4.4766h-4.625v-0.77344h3.8516v-2.9258h-7.6992v6.6484h20.426v-6.6484h-7.6992v2.9258h3.8516v0.77344h-4.625v-4.4766h17.75v4.4766h-4.6484v-0.77344h3.8516v-2.9258h-7.6992v6.6484h20.426v-6.6484h-7.6992v2.9258h3.8516v0.77344h-4.625v-4.4766h17.75v4.4766h-4.625v-0.77344h3.8516v-2.9258h-7.6992v6.6484h20.426v-6.6484h-7.6992v2.9258h3.8516v0.77344h-4.6484v-4.4766h17.75v4.4766h-4.625v-0.77344h3.8516v-2.9258h-7.6992v6.6484h9.8242v-1.0742h-8.4766v-4.5h4.625zm0-18.551h-3.8516v2.9258h7.6992v-6.625h-20.426v6.625h7.6992v-2.9258h-3.8516v-0.77344h4.625v4.4766h-17.75v-4.4766h4.6484v0.77344h-3.8516v2.9258h7.6992v-6.625h-20.426v6.625h7.6992v-2.9258h-3.8516v-0.77344h4.625v4.4766h-17.75v-4.4766h4.625v0.77344h-3.8516v2.9258h7.6992v-6.625h-20.426v6.625h7.6992v-2.9258h-3.8516v-0.77344h4.6484v4.4766h-17.75v-4.4766h4.625v0.77344h-3.8516v2.9258h7.6992v-6.625h-9.8242v1.0742h8.4766v4.4766h-4.625v-0.77344h3.8516v-2.9258h-7.6992v6.625h20.426v-6.625h-7.6992v2.9258h3.8516v0.77344h-4.625v-4.4766h17.75v4.4766h-4.6484v-0.77344h3.8516v-2.9258h-7.6992v6.625h20.426v-6.625h-7.6992v2.9258h3.8516v0.77344h-4.625v-4.4766h17.75v4.4766h-4.625v-0.77344h3.8516v-2.9258h-7.6992v6.625h20.426v-6.625h-7.6992v2.9258h3.8516v0.77344h-4.6484v-4.4766h17.75v4.4766h-4.625v-0.77344h3.8516v-2.9258h-7.6992v6.625h9.8242v-1.0742h-8.4766v-4.4766h4.625zm0-18.551h-3.8516v2.9258h7.6992v-6.6484h-20.426v6.6484h7.6992v-2.9258h-3.8516v-0.77344h4.625v4.4766h-17.75v-4.4766h4.6484v0.77344h-3.8516v2.9258h7.6992v-6.6484h-20.426v6.6484h7.6992v-2.9258h-3.8516v-0.77344h4.625v4.4766h-17.75v-4.4766h4.625v0.77344h-3.8516v2.9258h7.6992v-6.6484h-20.426v6.6484h7.6992v-2.9258h-3.8516v-0.77344h4.6484v4.4766h-17.75v-4.4766h4.625v0.77344h-3.8516v2.9258h7.6992v-6.6484h-9.8242v1.0742h8.4766v4.5h-4.625v-0.77344h3.8516v-2.9258h-7.6992v6.625h20.426v-6.625h-7.6992v2.9258h3.8516v0.77344h-4.625v-4.5h17.75v4.5h-4.6484v-0.77344h3.8516v-2.9258h-7.6992v6.625h20.426v-6.625h-7.6992v2.9258h3.8516v0.77344h-4.625v-4.5h17.75v4.5h-4.625v-0.77344h3.8516v-2.9258h-7.6992v6.625h20.426v-6.625h-7.6992v2.9258h3.8516v0.77344h-4.6484v-4.5h17.75v4.5h-4.625v-0.77344h3.8516v-2.9258h-7.6992v6.625h9.8242v-1.0742h-8.4766v-4.4766h4.625zm0 48.25h-4.625v-4.5h8.4766v-1.0742h-9.8242v6.6484h7.6992v-2.9492h-3.8516v-0.77344h4.625v4.5h-17.75v-4.5h4.6484v0.77344h-3.8516v2.9492h7.6992v-6.6484h-20.426v6.6484h7.6992v-2.9492h-3.8516v-0.77344h4.625v4.5h-17.75v-4.5h4.625v0.77344h-3.8516v2.9492h7.6992v-6.6484h-20.426v6.6484h7.6992v-2.9492h-3.8516v-0.77344h4.6484v4.5h-17.75v-4.5h4.625v0.77344h-3.8516v2.9492h7.6992v-6.6484h-20.426v6.6484h7.6992v-2.9492h-3.8516v-0.77344h4.625v4.5h-8.4766v1.0742h9.8242v-6.6484h-7.6992v2.9258h3.8516v0.80078h-4.625v-4.5h17.75v4.5h-4.6484v-0.80078h3.8516v-2.9258h-7.6992v6.6484h20.426v-6.6484h-7.6992v2.9258h3.8516v0.80078h-4.625v-4.5h17.75v4.5h-4.625v-0.80078h3.8516v-2.9258h-7.6992v6.6484h20.426v-6.6484h-7.6992v2.9258h3.8516v0.80078h-4.6484v-4.5h17.75v4.5h-4.625v-0.80078h3.8516v-2.9258h-7.6992v6.6484h20.426v-6.6484h-7.6992v2.9258h3.8516v0.80078zm0-18.574h-4.625v-4.4766h8.4766v-1.0742h-9.8242v6.625h7.6992v-2.9258h-3.8516v-0.77344h4.625v4.5h-17.75v-4.5h4.6484v0.77344h-3.8516v2.9258h7.6992v-6.625h-20.426v6.625h7.6992v-2.9258h-3.8516v-0.77344h4.625v4.5h-17.75v-4.5h4.625v0.77344h-3.8516v2.9258h7.6992v-6.625h-20.426v6.625h7.6992v-2.9258h-3.8516v-0.77344h4.6484v4.5h-17.75v-4.5h4.625v0.77344h-3.8516v2.9258h7.6992v-6.625h-20.426v6.625h7.6992v-2.9258h-3.8516v-0.77344h4.625v4.5h-8.4766v1.0742h9.8242v-6.6484h-7.6992v2.9258h3.8516v0.77344h-4.625v-4.4766h17.75v4.4766h-4.6484v-0.77344h3.8516v-2.9258h-7.6992v6.6484h20.426v-6.6484h-7.6992v2.9258h3.8516v0.77344h-4.625v-4.4766h17.75v4.4766h-4.625v-0.77344h3.8516v-2.9258h-7.6992v6.6484h20.426v-6.6484h-7.6992v2.9258h3.8516v0.77344h-4.6484v-4.4766h17.75v4.4766h-4.625v-0.77344h3.8516v-2.9258h-7.6992v6.6484h20.426v-6.6484h-7.6992v2.9258h3.8516zm0-18.551h-4.625v-4.5h8.4766v-1.0742h-9.8242v6.6484h7.6992v-2.9258h-3.8516v-0.77344h4.625v4.4766h-17.75v-4.4766h4.6484v0.77344h-3.8516v2.9258h7.6992v-6.6484h-20.426v6.6484h7.6992v-2.9258h-3.8516v-0.77344h4.625v4.4766h-17.75v-4.4766h4.625v0.77344h-3.8516v2.9258h7.6992v-6.6484h-20.426v6.6484h7.6992v-2.9258h-3.8516v-0.77344h4.6484v4.4766h-17.75v-4.4766h4.625v0.77344h-3.8516v2.9258h7.6992v-6.6484h-20.426v6.6484h7.6992v-2.9258h-3.8516v-0.77344h4.625v4.4766h-8.4766v1.0742h9.8242v-6.625h-7.6992v2.9258h3.8516v0.77344h-4.625v-4.5h17.75v4.5h-4.6484v-0.77344h3.8516v-2.9258h-7.6992v6.625h20.426v-6.625h-7.6992v2.9258h3.8516v0.77344h-4.625v-4.5h17.75v4.5h-4.625v-0.77344h3.8516v-2.9258h-7.6992v6.625h20.426v-6.625h-7.6992v2.9258h3.8516v0.77344h-4.6484v-4.5h17.75v4.5h-4.625v-0.77344h3.8516v-2.9258h-7.6992v6.625h20.426v-6.625h-7.6992v2.9258h3.8516zm4.625 40.824v9.2734h-75v-74.992h75v65.727z"></path></svg>
