<svg xmlns="http://www.w3.org/2000/svg" xmlns:xlink="http://www.w3.org/1999/xlink" version="1.1" x="0px" y="0px" xml:space="preserve" viewBox="6.3 5.8 90 90"><path d="M96.3,12.8v-2.8l-0.3,0.5l-3.2-4.7h-1.2l3.8,5.6l-3.8,5.6l3.8,5.6l-3.8,5.6l3.8,5.6l-3.8,5.6l3.8,5.6l-3.8,5.6l3.8,5.6  l-3.8,5.6l3.8,5.6l-3.8,5.6l3.8,5.6l-3.8,5.6l3.8,5.6l-3.8,5.6h1.2l3.2-4.7l0.3,0.5v-2.8l-0.3,0.5l-3.2-4.7l3.2-4.7l0.3,0.5v-2.8  l-0.3,0.5l-3.2-4.7l3.2-4.7l0.3,0.5v-2.8l-0.3,0.5l-3.2-4.7l3.2-4.7l0.3,0.5v-2.8l-0.3,0.5l-3.2-4.7l3.2-4.7l0.3,0.5v-2.8l-0.3,0.5  l-3.2-4.7l3.2-4.7l0.3,0.5v-2.8l-0.3,0.5l-3.2-4.7l3.2-4.7l0.3,0.5v-2.8l-0.3,0.5l-3.2-4.7l3.2-4.7L96.3,12.8z M7.2,11.5L11,5.8H9.8  l-3.2,4.7l-0.3-0.5v2.8l0.3-0.5l3.2,4.7l-3.2,4.7l-0.3-0.5v2.8l0.3-0.5l3.2,4.7l-3.2,4.7l-0.3-0.5v2.8l0.3-0.5l3.2,4.7l-3.2,4.7  l-0.3-0.5v2.8l0.3-0.5l3.2,4.7l-3.2,4.7l-0.3-0.5v2.8l0.3-0.5l3.2,4.7l-3.2,4.7l-0.3-0.5v2.8l0.3-0.5l3.2,4.7l-3.2,4.7l-0.3-0.5v2.8  l0.3-0.5l3.2,4.7l-3.2,4.7l-0.3-0.5v2.8l0.3-0.5l3.2,4.7H11l-3.8-5.6l3.8-5.6L7.2,79l3.8-5.6l-3.8-5.6l3.8-5.6l-3.8-5.6l3.8-5.6  l-3.8-5.6l3.8-5.6L7.2,34l3.8-5.6l-3.8-5.6l3.8-5.6L7.2,11.5z M18.4,11.5l3.8-5.6H21l-3.2,4.7l-0.3-0.5l-0.3,0.5L14,5.8h-1.2  l3.8,5.6l-3.8,5.6l3.8,5.6l-3.8,5.6l3.8,5.6l-3.8,5.6l3.8,5.6l-3.8,5.6l3.8,5.6l-3.8,5.6l3.8,5.6l-3.8,5.6l3.8,5.6l-3.8,5.6l3.8,5.6  l-3.8,5.6H14l3.2-4.7l0.3,0.5l0.3-0.5l3.2,4.7h1.2l-3.8-5.6l3.8-5.6L18.4,79l3.8-5.6l-3.8-5.6l3.8-5.6l-3.8-5.6l3.8-5.6l-3.8-5.6  l3.8-5.6L18.4,34l3.8-5.6l-3.8-5.6l3.8-5.6L18.4,11.5z M21,84.6l-3.2,4.7l-0.3-0.5l-0.3,0.5L14,84.6l3.2-4.7l0.3,0.5l0.3-0.5  L21,84.6z M21,73.3l-3.2,4.7l-0.3-0.5l-0.3,0.5L14,73.3l3.2-4.7l0.3,0.5l0.3-0.5L21,73.3z M21,62.1l-3.2,4.7l-0.3-0.5l-0.3,0.5  L14,62.1l3.2-4.7l0.3,0.5l0.3-0.5L21,62.1z M21,50.8l-3.2,4.7l-0.3-0.5l-0.3,0.5L14,50.8l3.2-4.7l0.3,0.5l0.3-0.5L21,50.8z M21,39.6  l-3.2,4.7l-0.3-0.5l-0.3,0.5L14,39.6l3.2-4.7l0.3,0.5l0.3-0.5L21,39.6z M21,28.3l-3.2,4.7l-0.3-0.5l-0.3,0.5L14,28.3l3.2-4.7  l0.3,0.5l0.3-0.5L21,28.3z M17.8,21.8l-0.3-0.5l-0.3,0.5L14,17.1l3.2-4.7l0.3,0.5l0.3-0.5l3.2,4.7L17.8,21.8z M29.7,11.5l3.8-5.6  h-1.2l-3.2,4.7l-0.3-0.5l-0.3,0.5l-3.2-4.7H24l3.8,5.6L24,17.1l3.8,5.6L24,28.3l3.8,5.6L24,39.6l3.8,5.6L24,50.8l3.8,5.6L24,62.1  l3.8,5.6L24,73.3l3.8,5.6L24,84.6l3.8,5.6L24,95.8h1.2l3.2-4.7l0.3,0.5l0.3-0.5l3.2,4.7h1.2l-3.8-5.6l3.8-5.6L29.7,79l3.8-5.6  l-3.8-5.6l3.8-5.6l-3.8-5.6l3.8-5.6l-3.8-5.6l3.8-5.6L29.7,34l3.8-5.6l-3.8-5.6l3.8-5.6L29.7,11.5z M32.3,84.6l-3.2,4.7l-0.3-0.5  l-0.3,0.5l-3.2-4.7l3.2-4.7l0.3,0.5l0.3-0.5L32.3,84.6z M32.3,73.3l-3.2,4.7l-0.3-0.5l-0.3,0.5l-3.2-4.7l3.2-4.7l0.3,0.5l0.3-0.5  L32.3,73.3z M32.3,62.1l-3.2,4.7l-0.3-0.5l-0.3,0.5l-3.2-4.7l3.2-4.7l0.3,0.5l0.3-0.5L32.3,62.1z M32.3,50.8l-3.2,4.7l-0.3-0.5  l-0.3,0.5l-3.2-4.7l3.2-4.7l0.3,0.5l0.3-0.5L32.3,50.8z M32.3,39.6l-3.2,4.7l-0.3-0.5l-0.3,0.5l-3.2-4.7l3.2-4.7l0.3,0.5l0.3-0.5  L32.3,39.6z M32.3,28.3l-3.2,4.7l-0.3-0.5l-0.3,0.5l-3.2-4.7l3.2-4.7l0.3,0.5l0.3-0.5L32.3,28.3z M29.1,21.8l-0.3-0.5l-0.3,0.5  l-3.2-4.7l3.2-4.7l0.3,0.5l0.3-0.5l3.2,4.7L29.1,21.8z M40.9,11.5l3.8-5.6h-1.2l-3.2,4.7L40,10.1l-0.3,0.5l-3.2-4.7h-1.2l3.8,5.6  l-3.8,5.6l3.8,5.6l-3.8,5.6l3.8,5.6l-3.8,5.6l3.8,5.6l-3.8,5.6l3.8,5.6l-3.8,5.6l3.8,5.6l-3.8,5.6l3.8,5.6l-3.8,5.6l3.8,5.6  l-3.8,5.6h1.2l3.2-4.7l0.3,0.5l0.3-0.5l3.2,4.7h1.2l-3.8-5.6l3.8-5.6L40.9,79l3.8-5.6l-3.8-5.6l3.8-5.6l-3.8-5.6l3.8-5.6l-3.8-5.6  l3.8-5.6L40.9,34l3.8-5.6l-3.8-5.6l3.8-5.6L40.9,11.5z M43.5,84.6l-3.2,4.7L40,88.8l-0.3,0.5l-3.2-4.7l3.2-4.7l0.3,0.5l0.3-0.5  L43.5,84.6z M43.5,73.3l-3.2,4.7L40,77.6l-0.3,0.5l-3.2-4.7l3.2-4.7l0.3,0.5l0.3-0.5L43.5,73.3z M43.5,62.1l-3.2,4.7L40,66.3  l-0.3,0.5l-3.2-4.7l3.2-4.7l0.3,0.5l0.3-0.5L43.5,62.1z M43.5,50.8l-3.2,4.7L40,55.1l-0.3,0.5l-3.2-4.7l3.2-4.7l0.3,0.5l0.3-0.5  L43.5,50.8z M43.5,39.6l-3.2,4.7L40,43.8l-0.3,0.5l-3.2-4.7l3.2-4.7l0.3,0.5l0.3-0.5L43.5,39.6z M43.5,28.3l-3.2,4.7L40,32.6  l-0.3,0.5l-3.2-4.7l3.2-4.7l0.3,0.5l0.3-0.5L43.5,28.3z M40.3,21.8L40,21.3l-0.3,0.5l-3.2-4.7l3.2-4.7l0.3,0.5l0.3-0.5l3.2,4.7  L40.3,21.8z M52.2,11.5L56,5.8h-1.2l-3.2,4.7l-0.3-0.5l-0.3,0.5l-3.2-4.7h-1.2l3.8,5.6l-3.8,5.6l3.8,5.6l-3.8,5.6l3.8,5.6l-3.8,5.6  l3.8,5.6l-3.8,5.6l3.8,5.6l-3.8,5.6l3.8,5.6l-3.8,5.6l3.8,5.6l-3.8,5.6l3.8,5.6l-3.8,5.6h1.2l3.2-4.7l0.3,0.5l0.3-0.5l3.2,4.7H56  l-3.8-5.6l3.8-5.6L52.2,79l3.8-5.6l-3.8-5.6l3.8-5.6l-3.8-5.6l3.8-5.6l-3.8-5.6l3.8-5.6L52.2,34l3.8-5.6l-3.8-5.6l3.8-5.6L52.2,11.5  z M54.8,84.6l-3.2,4.7l-0.3-0.5l-0.3,0.5l-3.2-4.7l3.2-4.7l0.3,0.5l0.3-0.5L54.8,84.6z M54.8,73.3l-3.2,4.7l-0.3-0.5l-0.3,0.5  l-3.2-4.7l3.2-4.7l0.3,0.5l0.3-0.5L54.8,73.3z M54.8,62.1l-3.2,4.7l-0.3-0.5l-0.3,0.5l-3.2-4.7l3.2-4.7l0.3,0.5l0.3-0.5L54.8,62.1z   M54.8,50.8l-3.2,4.7l-0.3-0.5l-0.3,0.5l-3.2-4.7l3.2-4.7l0.3,0.5l0.3-0.5L54.8,50.8z M54.8,39.6l-3.2,4.7l-0.3-0.5l-0.3,0.5  l-3.2-4.7l3.2-4.7l0.3,0.5l0.3-0.5L54.8,39.6z M54.8,28.3l-3.2,4.7l-0.3-0.5l-0.3,0.5l-3.2-4.7l3.2-4.7l0.3,0.5l0.3-0.5L54.8,28.3z   M51.6,21.8l-0.3-0.5l-0.3,0.5l-3.2-4.7l3.2-4.7l0.3,0.5l0.3-0.5l3.2,4.7L51.6,21.8z M63.4,11.5l3.8-5.6H66l-3.2,4.7l-0.3-0.5  l-0.3,0.5L59,5.8h-1.2l3.8,5.6l-3.8,5.6l3.8,5.6l-3.8,5.6l3.8,5.6l-3.8,5.6l3.8,5.6l-3.8,5.6l3.8,5.6l-3.8,5.6l3.8,5.6l-3.8,5.6  l3.8,5.6l-3.8,5.6l3.8,5.6l-3.8,5.6H59l3.2-4.7l0.3,0.5l0.3-0.5l3.2,4.7h1.2l-3.8-5.6l3.8-5.6L63.4,79l3.8-5.6l-3.8-5.6l3.8-5.6  l-3.8-5.6l3.8-5.6l-3.8-5.6l3.8-5.6L63.4,34l3.8-5.6l-3.8-5.6l3.8-5.6L63.4,11.5z M66,84.6l-3.2,4.7l-0.3-0.5l-0.3,0.5L59,84.6  l3.2-4.7l0.3,0.5l0.3-0.5L66,84.6z M66,73.3l-3.2,4.7l-0.3-0.5l-0.3,0.5L59,73.3l3.2-4.7l0.3,0.5l0.3-0.5L66,73.3z M66,62.1  l-3.2,4.7l-0.3-0.5l-0.3,0.5L59,62.1l3.2-4.7l0.3,0.5l0.3-0.5L66,62.1z M66,50.8l-3.2,4.7l-0.3-0.5l-0.3,0.5L59,50.8l3.2-4.7  l0.3,0.5l0.3-0.5L66,50.8z M66,39.6l-3.2,4.7l-0.3-0.5l-0.3,0.5L59,39.6l3.2-4.7l0.3,0.5l0.3-0.5L66,39.6z M66,28.3l-3.2,4.7  l-0.3-0.5l-0.3,0.5L59,28.3l3.2-4.7l0.3,0.5l0.3-0.5L66,28.3z M62.8,21.8l-0.3-0.5l-0.3,0.5L59,17.1l3.2-4.7l0.3,0.5l0.3-0.5  l3.2,4.7L62.8,21.8z M74.7,11.5l3.8-5.6h-1.2l-3.2,4.7l-0.3-0.5l-0.3,0.5l-3.2-4.7H69l3.8,5.6L69,17.1l3.8,5.6L69,28.3l3.8,5.6  L69,39.6l3.8,5.6L69,50.8l3.8,5.6L69,62.1l3.8,5.6L69,73.3l3.8,5.6L69,84.6l3.8,5.6L69,95.8h1.2l3.2-4.7l0.3,0.5l0.3-0.5l3.2,4.7  h1.2l-3.8-5.6l3.8-5.6L74.7,79l3.8-5.6l-3.8-5.6l3.8-5.6l-3.8-5.6l3.8-5.6l-3.8-5.6l3.8-5.6L74.7,34l3.8-5.6l-3.8-5.6l3.8-5.6  L74.7,11.5z M77.3,84.6l-3.2,4.7l-0.3-0.5l-0.3,0.5l-3.2-4.7l3.2-4.7l0.3,0.5l0.3-0.5L77.3,84.6z M77.3,73.3l-3.2,4.7l-0.3-0.5  l-0.3,0.5l-3.2-4.7l3.2-4.7l0.3,0.5l0.3-0.5L77.3,73.3z M77.3,62.1l-3.2,4.7l-0.3-0.5l-0.3,0.5l-3.2-4.7l3.2-4.7l0.3,0.5l0.3-0.5  L77.3,62.1z M77.3,50.8l-3.2,4.7l-0.3-0.5l-0.3,0.5l-3.2-4.7l3.2-4.7l0.3,0.5l0.3-0.5L77.3,50.8z M77.3,39.6l-3.2,4.7l-0.3-0.5  l-0.3,0.5l-3.2-4.7l3.2-4.7l0.3,0.5l0.3-0.5L77.3,39.6z M77.3,28.3l-3.2,4.7l-0.3-0.5l-0.3,0.5l-3.2-4.7l3.2-4.7l0.3,0.5l0.3-0.5  L77.3,28.3z M74.1,21.8l-0.3-0.5l-0.3,0.5l-3.2-4.7l3.2-4.7l0.3,0.5l0.3-0.5l3.2,4.7L74.1,21.8z M85.9,11.5l3.8-5.6h-1.2l-3.2,4.7  L85,10.1l-0.3,0.5l-3.2-4.7h-1.2l3.8,5.6l-3.8,5.6l3.8,5.6l-3.8,5.6l3.8,5.6l-3.8,5.6l3.8,5.6l-3.8,5.6l3.8,5.6l-3.8,5.6l3.8,5.6  l-3.8,5.6l3.8,5.6l-3.8,5.6l3.8,5.6l-3.8,5.6h1.2l3.2-4.7l0.3,0.5l0.3-0.5l3.2,4.7h1.2l-3.8-5.6l3.8-5.6L85.9,79l3.8-5.6l-3.8-5.6  l3.8-5.6l-3.8-5.6l3.8-5.6l-3.8-5.6l3.8-5.6L85.9,34l3.8-5.6l-3.8-5.6l3.8-5.6L85.9,11.5z M88.5,84.6l-3.2,4.7L85,88.8l-0.3,0.5  l-3.2-4.7l3.2-4.7l0.3,0.5l0.3-0.5L88.5,84.6z M88.5,73.3l-3.2,4.7L85,77.6l-0.3,0.5l-3.2-4.7l3.2-4.7l0.3,0.5l0.3-0.5L88.5,73.3z   M88.5,62.1l-3.2,4.7L85,66.3l-0.3,0.5l-3.2-4.7l3.2-4.7l0.3,0.5l0.3-0.5L88.5,62.1z M88.5,50.8l-3.2,4.7L85,55.1l-0.3,0.5l-3.2-4.7  l3.2-4.7l0.3,0.5l0.3-0.5L88.5,50.8z M88.5,39.6l-3.2,4.7L85,43.8l-0.3,0.5l-3.2-4.7l3.2-4.7l0.3,0.5l0.3-0.5L88.5,39.6z M88.5,28.3  l-3.2,4.7L85,32.6l-0.3,0.5l-3.2-4.7l3.2-4.7l0.3,0.5l0.3-0.5L88.5,28.3z M85.3,21.8L85,21.3l-0.3,0.5l-3.2-4.7l3.2-4.7l0.3,0.5  l0.3-0.5l3.2,4.7L85.3,21.8z"></path><path d="M8.6,5.8L6.3,9.4V5.8H8.6z M15.1,5.8l2.4,3.5l2.4-3.5H15.1z M26.4,5.8l2.4,3.5l2.4-3.5H26.4z M37.6,5.8L40,9.4l2.4-3.5H37.6  z M48.9,5.8l2.4,3.5l2.4-3.5H48.9z M60.1,5.8l2.4,3.5l2.4-3.5H60.1z M71.4,5.8l2.4,3.5l2.4-3.5H71.4z M82.6,5.8L85,9.4l2.4-3.5H82.6  z M93.9,5.8l2.4,3.5V5.8H93.9z M6.3,13.5v7.1l2.4-3.5L6.3,13.5z M19.9,17.1l-2.4-3.5l-2.4,3.5l2.4,3.5L19.9,17.1z M31.1,17.1  l-2.4-3.5l-2.4,3.5l2.4,3.5L31.1,17.1z M42.4,17.1L40,13.5l-2.4,3.5l2.4,3.5L42.4,17.1z M53.6,17.1l-2.4-3.5l-2.4,3.5l2.4,3.5  L53.6,17.1z M64.9,17.1l-2.4-3.5l-2.4,3.5l2.4,3.5L64.9,17.1z M76.1,17.1l-2.4-3.5l-2.4,3.5l2.4,3.5L76.1,17.1z M87.4,17.1L85,13.5  l-2.4,3.5l2.4,3.5L87.4,17.1z M93.9,17.1l2.4,3.5v-7.1L93.9,17.1z M6.3,24.8v7.1l2.4-3.5L6.3,24.8z M19.9,28.3l-2.4-3.5l-2.4,3.5  l2.4,3.5L19.9,28.3z M31.1,28.3l-2.4-3.5l-2.4,3.5l2.4,3.5L31.1,28.3z M42.4,28.3L40,24.8l-2.4,3.5l2.4,3.5L42.4,28.3z M53.6,28.3  l-2.4-3.5l-2.4,3.5l2.4,3.5L53.6,28.3z M64.9,28.3l-2.4-3.5l-2.4,3.5l2.4,3.5L64.9,28.3z M76.1,28.3l-2.4-3.5l-2.4,3.5l2.4,3.5  L76.1,28.3z M87.4,28.3L85,24.8l-2.4,3.5l2.4,3.5L87.4,28.3z M93.9,28.3l2.4,3.5v-7.1L93.9,28.3z M6.3,36v7.1l2.4-3.5L6.3,36z   M19.9,39.6L17.5,36l-2.4,3.5l2.4,3.5L19.9,39.6z M31.1,39.6L28.7,36l-2.4,3.5l2.4,3.5L31.1,39.6z M42.4,39.6L40,36l-2.4,3.5  l2.4,3.5L42.4,39.6z M53.6,39.6L51.2,36l-2.4,3.5l2.4,3.5L53.6,39.6z M64.9,39.6L62.5,36l-2.4,3.5l2.4,3.5L64.9,39.6z M76.1,39.6  L73.7,36l-2.4,3.5l2.4,3.5L76.1,39.6z M87.4,39.6L85,36l-2.4,3.5l2.4,3.5L87.4,39.6z M93.9,39.6l2.4,3.5V36L93.9,39.6z M6.3,47.3  v7.1l2.4-3.5L6.3,47.3z M19.9,50.8l-2.4-3.5l-2.4,3.5l2.4,3.5L19.9,50.8z M31.1,50.8l-2.4-3.5l-2.4,3.5l2.4,3.5L31.1,50.8z   M42.4,50.8L40,47.3l-2.4,3.5l2.4,3.5L42.4,50.8z M53.6,50.8l-2.4-3.5l-2.4,3.5l2.4,3.5L53.6,50.8z M64.9,50.8l-2.4-3.5l-2.4,3.5  l2.4,3.5L64.9,50.8z M76.1,50.8l-2.4-3.5l-2.4,3.5l2.4,3.5L76.1,50.8z M87.4,50.8L85,47.3l-2.4,3.5l2.4,3.5L87.4,50.8z M93.9,50.8  l2.4,3.5v-7.1L93.9,50.8z M6.3,58.5v7.1l2.4-3.5L6.3,58.5z M19.9,62.1l-2.4-3.5l-2.4,3.5l2.4,3.5L19.9,62.1z M31.1,62.1l-2.4-3.5  l-2.4,3.5l2.4,3.5L31.1,62.1z M42.4,62.1L40,58.5l-2.4,3.5l2.4,3.5L42.4,62.1z M53.6,62.1l-2.4-3.5l-2.4,3.5l2.4,3.5L53.6,62.1z   M64.9,62.1l-2.4-3.5l-2.4,3.5l2.4,3.5L64.9,62.1z M76.1,62.1l-2.4-3.5l-2.4,3.5l2.4,3.5L76.1,62.1z M87.4,62.1L85,58.5l-2.4,3.5  l2.4,3.5L87.4,62.1z M93.9,62.1l2.4,3.5v-7.1L93.9,62.1z M6.3,69.8v7.1l2.4-3.5L6.3,69.8z M19.9,73.3l-2.4-3.5l-2.4,3.5l2.4,3.5  L19.9,73.3z M31.1,73.3l-2.4-3.5l-2.4,3.5l2.4,3.5L31.1,73.3z M42.4,73.3L40,69.8l-2.4,3.5l2.4,3.5L42.4,73.3z M53.6,73.3l-2.4-3.5  l-2.4,3.5l2.4,3.5L53.6,73.3z M64.9,73.3l-2.4-3.5l-2.4,3.5l2.4,3.5L64.9,73.3z M76.1,73.3l-2.4-3.5l-2.4,3.5l2.4,3.5L76.1,73.3z   M87.4,73.3L85,69.8l-2.4,3.5l2.4,3.5L87.4,73.3z M93.9,73.3l2.4,3.5v-7.1L93.9,73.3z M6.3,81v7.1l2.4-3.5L6.3,81z M19.9,84.6  L17.5,81l-2.4,3.5l2.4,3.5L19.9,84.6z M31.1,84.6L28.7,81l-2.4,3.5l2.4,3.5L31.1,84.6z M42.4,84.6L40,81l-2.4,3.5l2.4,3.5L42.4,84.6  z M53.6,84.6L51.2,81l-2.4,3.5l2.4,3.5L53.6,84.6z M64.9,84.6L62.5,81l-2.4,3.5l2.4,3.5L64.9,84.6z M76.1,84.6L73.7,81l-2.4,3.5  l2.4,3.5L76.1,84.6z M87.4,84.6L85,81l-2.4,3.5l2.4,3.5L87.4,84.6z M93.9,84.6l2.4,3.5V81L93.9,84.6z M6.3,92.3v3.5h2.4L6.3,92.3z   M17.5,92.3l-2.4,3.5h4.8L17.5,92.3z M28.8,92.3l-2.4,3.5h4.8L28.8,92.3z M40,92.3l-2.4,3.5h4.8L40,92.3z M51.3,92.3l-2.4,3.5h4.8  L51.3,92.3z M62.5,92.3l-2.4,3.5h4.8L62.5,92.3z M73.8,92.3l-2.4,3.5h4.8L73.8,92.3z M85,92.3l-2.4,3.5h4.8L85,92.3z M93.9,95.8h2.4  v-3.5L93.9,95.8z"></path><path d="M13.5,11.4l-1.7,2.5l-1.7-2.5L11.9,9L13.5,11.4z M23.1,9l-1.7,2.5l1.7,2.5l1.7-2.5L23.1,9z M34.4,9l-1.7,2.5l1.7,2.5  l1.7-2.5L34.4,9z M45.6,9L44,11.4l1.7,2.5l1.7-2.5L45.6,9z M56.9,9l-1.7,2.5l1.7,2.5l1.7-2.5L56.9,9z M68.1,9l-1.7,2.5l1.7,2.5  l1.7-2.5L68.1,9z M79.4,9l-1.7,2.5l1.7,2.5l1.7-2.5L79.4,9z M90.6,9L89,11.4l1.7,2.5l1.7-2.5L90.6,9z M11.9,20.2l-1.7,2.5l1.7,2.5  l1.7-2.5L11.9,20.2z M23.1,20.2l-1.7,2.5l1.7,2.5l1.7-2.5L23.1,20.2z M34.4,20.2l-1.7,2.5l1.7,2.5l1.7-2.5L34.4,20.2z M45.6,20.2  L44,22.7l1.7,2.5l1.7-2.5L45.6,20.2z M56.9,20.2l-1.7,2.5l1.7,2.5l1.7-2.5L56.9,20.2z M68.1,20.2l-1.7,2.5l1.7,2.5l1.7-2.5  L68.1,20.2z M79.4,20.2l-1.7,2.5l1.7,2.5l1.7-2.5L79.4,20.2z M90.6,20.2L89,22.7l1.7,2.5l1.7-2.5L90.6,20.2z M11.9,31.5l-1.7,2.5  l1.7,2.5l1.7-2.5L11.9,31.5z M23.1,31.5l-1.7,2.5l1.7,2.5l1.7-2.5L23.1,31.5z M34.4,31.5l-1.7,2.5l1.7,2.5l1.7-2.5L34.4,31.5z   M45.6,31.5L44,33.9l1.7,2.5l1.7-2.5L45.6,31.5z M56.9,31.5l-1.7,2.5l1.7,2.5l1.7-2.5L56.9,31.5z M68.1,31.5l-1.7,2.5l1.7,2.5  l1.7-2.5L68.1,31.5z M79.4,31.5l-1.7,2.5l1.7,2.5l1.7-2.5L79.4,31.5z M90.6,31.5L89,33.9l1.7,2.5l1.7-2.5L90.6,31.5z M11.9,42.7  l-1.7,2.5l1.7,2.5l1.7-2.5L11.9,42.7z M23.1,42.7l-1.7,2.5l1.7,2.5l1.7-2.5L23.1,42.7z M34.4,42.7l-1.7,2.5l1.7,2.5l1.7-2.5  L34.4,42.7z M45.6,42.7L44,45.2l1.7,2.5l1.7-2.5L45.6,42.7z M56.9,42.7l-1.7,2.5l1.7,2.5l1.7-2.5L56.9,42.7z M68.1,42.7l-1.7,2.5  l1.7,2.5l1.7-2.5L68.1,42.7z M79.4,42.7l-1.7,2.5l1.7,2.5l1.7-2.5L79.4,42.7z M90.6,42.7L89,45.2l1.7,2.5l1.7-2.5L90.6,42.7z   M11.9,54l-1.7,2.5l1.7,2.5l1.7-2.5L11.9,54z M23.1,54l-1.7,2.5l1.7,2.5l1.7-2.5L23.1,54z M34.4,54l-1.7,2.5l1.7,2.5l1.7-2.5  L34.4,54z M45.6,54L44,56.4l1.7,2.5l1.7-2.5L45.6,54z M56.9,54l-1.7,2.5l1.7,2.5l1.7-2.5L56.9,54z M68.1,54l-1.7,2.5l1.7,2.5  l1.7-2.5L68.1,54z M79.4,54l-1.7,2.5l1.7,2.5l1.7-2.5L79.4,54z M90.6,54L89,56.4l1.7,2.5l1.7-2.5L90.6,54z M11.9,65.2l-1.7,2.5  l1.7,2.5l1.7-2.5L11.9,65.2z M23.1,65.2l-1.7,2.5l1.7,2.5l1.7-2.5L23.1,65.2z M34.4,65.2l-1.7,2.5l1.7,2.5l1.7-2.5L34.4,65.2z   M45.6,65.2L44,67.7l1.7,2.5l1.7-2.5L45.6,65.2z M56.9,65.2l-1.7,2.5l1.7,2.5l1.7-2.5L56.9,65.2z M68.1,65.2l-1.7,2.5l1.7,2.5  l1.7-2.5L68.1,65.2z M79.4,65.2l-1.7,2.5l1.7,2.5l1.7-2.5L79.4,65.2z M90.6,65.2L89,67.7l1.7,2.5l1.7-2.5L90.6,65.2z M11.9,81.4  l1.7-2.5l-1.7-2.5L10.2,79L11.9,81.4z M23.1,81.4l1.7-2.5l-1.7-2.5L21.5,79L23.1,81.4z M34.4,81.4L36,79l-1.7-2.5L32.7,79L34.4,81.4  z M45.6,81.4l1.7-2.5l-1.7-2.5L44,79L45.6,81.4z M56.9,81.4l1.7-2.5l-1.7-2.5L55.2,79L56.9,81.4z M68.1,81.4l1.7-2.5l-1.7-2.5  L66.5,79L68.1,81.4z M79.4,81.4l1.7-2.5l-1.7-2.5L77.7,79L79.4,81.4z M90.6,81.4l1.7-2.5l-1.7-2.5L89,79L90.6,81.4z M11.9,87.7  l-1.7,2.5l1.7,2.5l1.7-2.5L11.9,87.7z M23.1,87.7l-1.7,2.5l1.7,2.5l1.7-2.5L23.1,87.7z M34.4,87.7l-1.7,2.5l1.7,2.5l1.7-2.5  L34.4,87.7z M45.6,87.7L44,90.2l1.7,2.5l1.7-2.5L45.6,87.7z M56.9,87.7l-1.7,2.5l1.7,2.5l1.7-2.5L56.9,87.7z M68.1,87.7l-1.7,2.5  l1.7,2.5l1.7-2.5L68.1,87.7z M79.4,87.7l-1.7,2.5l1.7,2.5l1.7-2.5L79.4,87.7z M90.6,87.7L89,90.2l1.7,2.5l1.7-2.5L90.6,87.7z"></path></svg>
